<svg width="224" height="63" viewBox="0 0 224 63" fill="none" xmlns="http://www.w3.org/2000/svg">
<path d="M45.7744 36.2515L56.7037 39.219M45.7744 36.2515L27.0635 58.2146M45.7744 36.2515L40.4083 26.1737M56.7037 39.219L38.2022 61.2264L27.0635 58.2146M56.7037 39.219L51.3759 29.2131L40.4083 26.1737M27.0635 58.2146L18.7373 42.5776L24.3801 35.2678M40.4083 26.1737L31.5481 37.1884M24.3801 35.2678L27.8505 41.7853L31.5481 37.1884M24.3801 35.2678L31.5481 37.1884M18.5114 37.1219L7.50309 34.2329L2 24.2908M18.5114 37.1219L12.9687 27.1083M18.5114 37.1219L27.2262 25.8838M2 24.2908L12.9687 27.1083M2 24.2908L20.0752 2L31.2538 4.85891M12.9687 27.1083L31.2538 4.85891M31.2538 4.85891L39.854 20.3963L34.3521 27.7932M34.3521 27.7932L30.7675 21.3173L27.2262 25.8838M34.3521 27.7932L27.2262 25.8838" stroke="white" stroke-width="2"/>
<path d="M74.9312 21.0271C74.9312 21.8271 74.7312 22.5338 74.3312 23.1471C73.9312 23.7471 73.3512 24.2205 72.5912 24.5671C71.8312 24.9005 70.9312 25.0671 69.8912 25.0671C68.8912 25.0671 67.9778 24.9205 67.1512 24.6271C66.3378 24.3205 65.6378 23.8871 65.0512 23.3271L66.0912 22.1471C66.5978 22.6271 67.1578 22.9938 67.7712 23.2471C68.3978 23.5005 69.1112 23.6271 69.9112 23.6271C70.8178 23.6271 71.5778 23.4071 72.1912 22.9671C72.8045 22.5271 73.1112 21.8938 73.1112 21.0671C73.1112 20.6005 73.0245 20.2138 72.8512 19.9071C72.6778 19.6005 72.3712 19.3271 71.9312 19.0871C71.5045 18.8471 70.8978 18.6138 70.1112 18.3871C68.6178 17.9471 67.5045 17.4338 66.7712 16.8471C66.0378 16.2471 65.6712 15.4338 65.6712 14.4071C65.6712 13.7271 65.8578 13.1138 66.2312 12.5671C66.6045 12.0205 67.1312 11.6005 67.8112 11.3071C68.4912 11.0005 69.2645 10.8471 70.1312 10.8471C71.0378 10.8471 71.8445 10.9805 72.5512 11.2471C73.2712 11.5138 73.9312 11.9071 74.5312 12.4271L73.4912 13.5471C72.5445 12.7205 71.4445 12.3071 70.1912 12.3071C69.3912 12.3071 68.7312 12.4805 68.2112 12.8271C67.6912 13.1738 67.4312 13.6805 67.4312 14.3471C67.4312 14.7471 67.5378 15.0871 67.7512 15.3671C67.9645 15.6471 68.3178 15.9071 68.8112 16.1471C69.3045 16.3871 69.9978 16.6338 70.8912 16.8871C72.1845 17.2605 73.1778 17.7471 73.8712 18.3471C74.5778 18.9471 74.9312 19.8405 74.9312 21.0271ZM79.4033 21.3271L78.3033 24.8471H76.5833L81.0833 11.0671H83.2833L87.7634 24.8471H85.9634L84.8633 21.3271H79.4033ZM84.4033 19.8871L82.1433 12.5471L79.8633 19.8871H84.4033ZM98.9155 21.0271C98.9155 21.8271 98.7155 22.5338 98.3155 23.1471C97.9155 23.7471 97.3355 24.2205 96.5755 24.5671C95.8155 24.9005 94.9155 25.0671 93.8755 25.0671C92.8755 25.0671 91.9622 24.9205 91.1355 24.6271C90.3222 24.3205 89.6222 23.8871 89.0355 23.3271L90.0755 22.1471C90.5822 22.6271 91.1422 22.9938 91.7555 23.2471C92.3822 23.5005 93.0955 23.6271 93.8955 23.6271C94.8022 23.6271 95.5622 23.4071 96.1755 22.9671C96.7889 22.5271 97.0955 21.8938 97.0955 21.0671C97.0955 20.6005 97.0089 20.2138 96.8355 19.9071C96.6622 19.6005 96.3555 19.3271 95.9155 19.0871C95.4889 18.8471 94.8822 18.6138 94.0955 18.3871C92.6022 17.9471 91.4889 17.4338 90.7555 16.8471C90.0222 16.2471 89.6555 15.4338 89.6555 14.4071C89.6555 13.7271 89.8422 13.1138 90.2155 12.5671C90.5889 12.0205 91.1155 11.6005 91.7955 11.3071C92.4755 11.0005 93.2489 10.8471 94.1155 10.8471C95.0222 10.8471 95.8289 10.9805 96.5355 11.2471C97.2555 11.5138 97.9155 11.9071 98.5155 12.4271L97.4755 13.5471C96.5289 12.7205 95.4289 12.3071 94.1755 12.3071C93.3755 12.3071 92.7155 12.4805 92.1955 12.8271C91.6755 13.1738 91.4155 13.6805 91.4155 14.3471C91.4155 14.7471 91.5222 15.0871 91.7355 15.3671C91.9489 15.6471 92.3022 15.9071 92.7955 16.1471C93.2889 16.3871 93.9822 16.6338 94.8755 16.8871C96.1689 17.2605 97.1622 17.7471 97.8555 18.3471C98.5622 18.9471 98.9155 19.8405 98.9155 21.0271ZM107.008 24.8471H105.268V12.5671H100.968V11.0671H111.348L111.168 12.5671H107.008V24.8471ZM78.0392 43.5191C78.0392 46.2231 77.4632 48.3591 76.3112 49.9271C75.1752 51.4791 73.5352 52.2551 71.3912 52.2551C69.2312 52.2551 67.5832 51.4871 66.4472 49.9511C65.3112 48.3991 64.7432 46.2551 64.7432 43.5191C64.7432 40.8151 65.3112 38.6871 66.4472 37.1351C67.5992 35.5671 69.2472 34.7831 71.3912 34.7831C73.5512 34.7831 75.1992 35.5591 76.3352 37.1111C77.4712 38.6471 78.0392 40.7831 78.0392 43.5191ZM74.0072 43.5191C74.0072 41.4711 73.7992 39.9831 73.3832 39.0551C72.9832 38.1271 72.3192 37.6631 71.3912 37.6631C70.4632 37.6631 69.7912 38.1271 69.3752 39.0551C68.9752 39.9831 68.7752 41.4711 68.7752 43.5191C68.7752 45.5671 68.9752 47.0551 69.3752 47.9831C69.7912 48.9111 70.4632 49.3751 71.3912 49.3751C72.3352 49.3751 73.0072 48.9111 73.4072 47.9831C73.8072 47.0551 74.0072 45.5671 74.0072 43.5191ZM80.2618 39.1031H83.5738L83.8378 40.5671C84.4138 39.9271 85.0138 39.4551 85.6378 39.1511C86.2778 38.8311 86.9978 38.6711 87.7978 38.6711C88.9018 38.6711 89.7578 39.0071 90.3658 39.6791C90.9898 40.3511 91.3018 41.2871 91.3018 42.4871V51.8471H87.5098V43.5911C87.5098 42.7911 87.4218 42.2391 87.2458 41.9351C87.0698 41.6311 86.7498 41.4791 86.2858 41.4791C85.9018 41.4791 85.5258 41.6071 85.1578 41.8631C84.8058 42.1031 84.4378 42.4631 84.0538 42.9431V51.8471H80.2618V39.1031ZM101.3 47.8391C101.3 48.7831 101.844 49.2551 102.932 49.2551C103.524 49.2551 104.132 49.1271 104.756 48.8711L105.644 51.4151C104.62 51.9751 103.396 52.2551 101.972 52.2551C100.484 52.2551 99.3644 51.8311 98.6124 50.9831C97.8764 50.1191 97.5084 48.9111 97.5084 47.3591V36.6311H93.7644V34.0391H101.3V47.8391ZM114.539 32.4311C115.195 32.4311 115.731 32.6391 116.147 33.0551C116.563 33.4551 116.771 33.9591 116.771 34.5671C116.771 35.1911 116.563 35.7031 116.147 36.1031C115.731 36.5031 115.195 36.7031 114.539 36.7031C113.883 36.7031 113.339 36.5031 112.907 36.1031C112.491 35.6871 112.283 35.1751 112.283 34.5671C112.283 33.9591 112.491 33.4551 112.907 33.0551C113.339 32.6391 113.883 32.4311 114.539 32.4311ZM116.819 49.2551H120.083V51.8471H109.427V49.2551H113.027V41.6951H109.547V39.1031H116.819V49.2551ZM123.434 39.1031H126.746L127.01 40.5671C127.586 39.9271 128.186 39.4551 128.81 39.1511C129.45 38.8311 130.17 38.6711 130.97 38.6711C132.074 38.6711 132.93 39.0071 133.538 39.6791C134.162 40.3511 134.474 41.2871 134.474 42.4871V51.8471H130.682V43.5911C130.682 42.7911 130.594 42.2391 130.418 41.9351C130.242 41.6311 129.922 41.4791 129.458 41.4791C129.074 41.4791 128.698 41.6071 128.33 41.8631C127.978 42.1031 127.61 42.4631 127.226 42.9431V51.8471H123.434V39.1031ZM141.112 46.5911C141.352 48.5271 142.376 49.4951 144.184 49.4951C145.272 49.4951 146.36 49.1431 147.448 48.4391L148.96 50.5031C148.336 51.0471 147.592 51.4791 146.728 51.7991C145.864 52.1031 144.912 52.2551 143.872 52.2551C142.448 52.2551 141.24 51.9751 140.248 51.4151C139.256 50.8391 138.504 50.0471 137.992 49.0391C137.496 48.0151 137.248 46.8311 137.248 45.4871C137.248 44.2071 137.488 43.0551 137.968 42.0311C138.464 40.9911 139.176 40.1751 140.104 39.5831C141.048 38.9751 142.168 38.6711 143.464 38.6711C144.68 38.6711 145.736 38.9351 146.632 39.4631C147.528 39.9751 148.216 40.7271 148.696 41.7191C149.192 42.6951 149.44 43.8631 149.44 45.2231C149.44 45.7511 149.416 46.2071 149.368 46.5911H141.112ZM143.464 41.2151C142.776 41.2151 142.224 41.4711 141.808 41.9831C141.392 42.4791 141.144 43.2471 141.064 44.2871H145.744C145.712 42.2391 144.952 41.2151 143.464 41.2151ZM163.183 45.8711C163.183 47.8231 162.591 49.3671 161.407 50.5031C160.239 51.6391 158.599 52.2071 156.487 52.2071C155.463 52.2071 154.559 52.0791 153.775 51.8231C153.007 51.5671 152.239 51.1751 151.471 50.6471L152.959 48.2231C153.535 48.6071 154.071 48.8791 154.567 49.0391C155.063 49.1991 155.631 49.2791 156.271 49.2791C157.151 49.2791 157.863 48.9991 158.407 48.4391C158.967 47.8631 159.247 47.0151 159.247 45.8951V38.0951H154.159V35.2151H163.183V45.8711ZM170.398 47.8151C170.398 48.4071 170.502 48.8311 170.71 49.0871C170.934 49.3271 171.262 49.4471 171.694 49.4471C172.078 49.4471 172.47 49.3271 172.87 49.0871C173.27 48.8311 173.598 48.4871 173.854 48.0551V39.1031H177.646V51.8471H174.334L174.166 50.3591C173.75 50.9671 173.19 51.4391 172.486 51.7751C171.782 52.0951 171.038 52.2551 170.254 52.2551C169.054 52.2551 168.142 51.9111 167.518 51.2231C166.91 50.5191 166.606 49.5431 166.606 48.2951V39.1031H170.398V47.8151ZM192.036 34.0391V51.8471H188.676L188.484 50.4551C188.1 50.9991 187.612 51.4391 187.02 51.7751C186.428 52.0951 185.74 52.2551 184.956 52.2551C183.42 52.2551 182.252 51.6471 181.452 50.4311C180.668 49.2151 180.276 47.5511 180.276 45.4391C180.276 44.1271 180.484 42.9591 180.9 41.9351C181.316 40.9111 181.908 40.1111 182.676 39.5351C183.444 38.9591 184.34 38.6711 185.364 38.6711C186.516 38.6711 187.476 39.0711 188.244 39.8711V33.6311L192.036 34.0391ZM186.372 41.4551C185.684 41.4551 185.148 41.7831 184.764 42.4391C184.38 43.0791 184.188 44.0871 184.188 45.4631C184.188 46.9351 184.356 47.9751 184.692 48.5831C185.044 49.1751 185.532 49.4711 186.156 49.4711C186.956 49.4711 187.652 48.9831 188.244 48.0071V42.5111C187.972 42.1591 187.684 41.8951 187.38 41.7191C187.092 41.5431 186.756 41.4551 186.372 41.4551ZM207.579 39.8471C206.747 40.1831 205.523 40.3511 203.907 40.3511C204.739 40.7191 205.355 41.1591 205.755 41.6711C206.171 42.1831 206.379 42.8391 206.379 43.6391C206.379 44.4551 206.155 45.1911 205.707 45.8471C205.259 46.4871 204.627 46.9911 203.811 47.3591C202.995 47.7271 202.051 47.9111 200.979 47.9111C200.451 47.9111 199.955 47.8631 199.491 47.7671C199.363 47.8311 199.259 47.9351 199.179 48.0791C199.115 48.2071 199.083 48.3431 199.083 48.4871C199.083 48.7271 199.171 48.9191 199.347 49.0631C199.539 49.1911 199.915 49.2551 200.475 49.2551H202.587C203.547 49.2551 204.395 49.4151 205.131 49.7351C205.867 50.0551 206.435 50.4951 206.835 51.0551C207.235 51.6151 207.435 52.2471 207.435 52.9511C207.435 54.2791 206.851 55.3111 205.683 56.0471C204.531 56.7991 202.843 57.1751 200.619 57.1751C199.035 57.1751 197.787 57.0071 196.875 56.6711C195.979 56.3511 195.347 55.8951 194.979 55.3031C194.627 54.7111 194.451 53.9671 194.451 53.0711H197.811C197.811 53.4711 197.883 53.7831 198.027 54.0071C198.187 54.2311 198.475 54.3991 198.891 54.5111C199.307 54.6231 199.915 54.6791 200.715 54.6791C201.835 54.6791 202.603 54.5511 203.019 54.2951C203.451 54.0391 203.667 53.6791 203.667 53.2151C203.667 52.8311 203.507 52.5191 203.187 52.2791C202.883 52.0551 202.427 51.9431 201.819 51.9431H199.803C198.491 51.9431 197.507 51.7111 196.851 51.2471C196.195 50.7671 195.867 50.1591 195.867 49.4231C195.867 48.9431 195.987 48.4951 196.227 48.0791C196.483 47.6471 196.835 47.2871 197.283 46.9991C196.483 46.5671 195.907 46.0631 195.555 45.4871C195.203 44.8951 195.027 44.1831 195.027 43.3511C195.027 42.4071 195.267 41.5831 195.747 40.8791C196.227 40.1751 196.899 39.6391 197.763 39.2711C198.627 38.8871 199.611 38.6951 200.715 38.6951C201.995 38.7271 203.083 38.6071 203.979 38.3351C204.875 38.0471 205.787 37.6231 206.715 37.0631L207.579 39.8471ZM200.811 41.1671C200.203 41.1671 199.723 41.3591 199.371 41.7431C199.035 42.1271 198.867 42.6471 198.867 43.3031C198.867 43.9911 199.043 44.5271 199.395 44.9111C199.747 45.2951 200.219 45.4871 200.811 45.4871C201.435 45.4871 201.915 45.3031 202.251 44.9351C202.587 44.5511 202.755 43.9911 202.755 43.2551C202.755 41.8631 202.107 41.1671 200.811 41.1671ZM213.065 46.5911C213.305 48.5271 214.329 49.4951 216.137 49.4951C217.225 49.4951 218.313 49.1431 219.401 48.4391L220.913 50.5031C220.289 51.0471 219.545 51.4791 218.681 51.7991C217.817 52.1031 216.865 52.2551 215.825 52.2551C214.401 52.2551 213.193 51.9751 212.201 51.4151C211.209 50.8391 210.457 50.0471 209.945 49.0391C209.449 48.0151 209.201 46.8311 209.201 45.4871C209.201 44.2071 209.441 43.0551 209.921 42.0311C210.417 40.9911 211.129 40.1751 212.057 39.5831C213.001 38.9751 214.121 38.6711 215.417 38.6711C216.633 38.6711 217.689 38.9351 218.585 39.4631C219.481 39.9751 220.169 40.7271 220.649 41.7191C221.145 42.6951 221.393 43.8631 221.393 45.2231C221.393 45.7511 221.369 46.2071 221.321 46.5911H213.065ZM215.417 41.2151C214.729 41.2151 214.177 41.4711 213.761 41.9831C213.345 42.4791 213.097 43.2471 213.017 44.2871H217.697C217.665 42.2391 216.905 41.2151 215.417 41.2151Z" fill="white"/>
</svg>
