<svg width="347" height="103" viewBox="0 0 347 103" fill="none" xmlns="http://www.w3.org/2000/svg">
<path d="M22.5677 22.633C22.5677 24.4116 22.1247 25.9827 21.2386 27.3463C20.3526 28.6803 19.0678 29.7326 17.3843 30.5034C15.7008 31.2445 13.7072 31.615 11.4035 31.615C9.18834 31.615 7.16519 31.2889 5.33402 30.6368C3.53239 29.955 1.9818 28.9915 0.682259 27.7465L2.98599 25.123C4.10832 26.1902 5.34879 27.0054 6.7074 27.5686C8.09555 28.1319 9.67567 28.4135 11.4478 28.4135C13.4562 28.4135 15.1396 27.9244 16.4983 26.9461C17.8569 25.9679 18.5362 24.5598 18.5362 22.7219C18.5362 21.6844 18.3442 20.8247 17.9602 20.1429C17.5763 19.4611 16.897 18.8534 15.9223 18.3198C14.9772 17.7862 13.6334 17.2675 11.8908 16.7635C8.58287 15.7853 6.1167 14.644 4.49228 13.3397C2.86785 12.0057 2.05564 10.1974 2.05564 7.91487C2.05564 6.40304 2.46913 5.03943 3.29611 3.82404C4.12309 2.60865 5.28972 1.67487 6.79601 1.02271C8.30229 0.340903 10.0153 0 11.9351 0C13.9435 0 15.7303 0.296438 17.2957 0.889313C18.8906 1.48219 20.3526 2.35667 21.6817 3.51278L19.3779 6.00285C17.2809 4.16494 14.8443 3.24599 12.068 3.24599C10.2959 3.24599 8.83392 3.63135 7.68206 4.40209C6.53019 5.17283 5.95426 6.29929 5.95426 7.78147C5.95426 8.67078 6.19054 9.4267 6.6631 10.0492C7.13566 10.6717 7.91834 11.2498 9.01113 11.7834C10.1039 12.317 11.6397 12.8654 13.6186 13.4286C16.4835 14.2586 18.6838 15.3406 20.2197 16.6746C21.785 18.0085 22.5677 19.9947 22.5677 22.633Z" fill="black"/>
<path d="M32.4742 23.2999L30.0375 31.1259H26.2275L36.1956 0.489123H41.0688L50.9926 31.1259H47.0054L44.5687 23.2999H32.4742ZM43.5498 20.0984L38.5436 3.77957L33.4931 20.0984H43.5498Z" fill="black"/>
<path d="M75.6961 22.633C75.6961 24.4116 75.2531 25.9827 74.367 27.3463C73.481 28.6803 72.1962 29.7326 70.5127 30.5034C68.8292 31.2445 66.8356 31.615 64.5319 31.615C62.3167 31.615 60.2936 31.2889 58.4624 30.6368C56.6608 29.955 55.1102 28.9915 53.8107 27.7465L56.1144 25.123C57.2367 26.1902 58.4772 27.0054 59.8358 27.5686C61.224 28.1319 62.8041 28.4135 64.5762 28.4135C66.5846 28.4135 68.2681 27.9244 69.6267 26.9461C70.9853 25.9679 71.6646 24.5598 71.6646 22.7219C71.6646 21.6844 71.4726 20.8247 71.0887 20.1429C70.7047 19.4611 70.0254 18.8534 69.0507 18.3198C68.1056 17.7862 66.7618 17.2675 65.0192 16.7635C61.7113 15.7853 59.2451 14.644 57.6207 13.3397C55.9963 12.0057 55.184 10.1974 55.184 7.91487C55.184 6.40304 55.5975 5.03943 56.4245 3.82404C57.2515 2.60865 58.4181 1.67487 59.9244 1.02271C61.4307 0.340903 63.1437 0 65.0635 0C67.0719 0 68.8588 0.296438 70.4241 0.889313C72.019 1.48219 73.481 2.35667 74.8101 3.51278L72.5063 6.00285C70.4093 4.16494 67.9727 3.24599 65.1964 3.24599C63.4243 3.24599 61.9623 3.63135 60.8105 4.40209C59.6586 5.17283 59.0827 6.29929 59.0827 7.78147C59.0827 8.67078 59.3189 9.4267 59.7915 10.0492C60.2641 10.6717 61.0467 11.2498 62.1395 11.7834C63.2323 12.317 64.7682 12.8654 66.747 13.4286C69.6119 14.2586 71.8123 15.3406 73.3481 16.6746C74.9134 18.0085 75.6961 19.9947 75.6961 22.633Z" fill="black"/>
<path d="M93.6213 31.1259H89.767V3.82404H80.242V0.489123H103.235L102.836 3.82404H93.6213V31.1259Z" fill="black"/>
<path d="M29.4523 72.6389C29.4523 78.6507 28.1764 83.3996 25.6246 86.8857C23.1082 90.3362 19.4754 92.0615 14.7262 92.0615C9.94149 92.0615 6.29096 90.354 3.77457 86.939C1.25819 83.4885 0 78.7218 0 72.6389C0 66.6272 1.25819 61.896 3.77457 58.4455C6.3264 54.9594 9.97693 53.2164 14.7262 53.2164C19.5108 53.2164 23.1614 54.9416 25.6777 58.3922C28.1941 61.8071 29.4523 66.556 29.4523 72.6389ZM20.5209 72.6389C20.5209 68.0856 20.0602 64.7774 19.1387 62.7142C18.2526 60.651 16.7818 59.6194 14.7262 59.6194C12.6705 59.6194 11.182 60.651 10.2605 62.7142C9.37441 64.7774 8.93139 68.0856 8.93139 72.6389C8.93139 77.1922 9.37441 80.5004 10.2605 82.5636C11.182 84.6268 12.6705 85.6584 14.7262 85.6584C16.8172 85.6584 18.3058 84.6268 19.1918 82.5636C20.0779 80.5004 20.5209 77.1922 20.5209 72.6389Z" fill="black"/>
<path d="M34.3757 62.8209H41.7122L42.297 66.0758C43.5729 64.6529 44.902 63.6035 46.2842 62.9276C47.7019 62.2162 49.2968 61.8605 51.0689 61.8605C53.5144 61.8605 55.4105 62.6075 56.7573 64.1015C58.1396 65.5956 58.8307 67.6766 58.8307 70.3445V91.1544H50.4309V72.799C50.4309 71.0204 50.236 69.7931 49.8461 69.1172C49.4563 68.4414 48.7474 68.1034 47.7196 68.1034C46.869 68.1034 46.0361 68.388 45.221 68.9572C44.4412 69.4908 43.6261 70.2911 42.7755 71.3583V91.1544H34.3757V62.8209Z" fill="black"/>
<path d="M80.9789 82.2435C80.9789 84.3422 82.1839 85.3916 84.594 85.3916C85.9053 85.3916 87.2522 85.1071 88.6344 84.5379L90.6014 90.1939C88.3331 91.4389 85.6218 92.0615 82.4675 92.0615C79.1714 92.0615 76.6904 91.1188 75.0247 89.2335C73.3943 87.3126 72.5792 84.6268 72.5792 81.1763V57.325H64.2857V51.5622H80.9789V82.2435Z" fill="black"/>
<path d="M110.304 47.9872C111.757 47.9872 112.945 48.4497 113.866 49.3745C114.788 50.2639 115.248 51.3844 115.248 52.7361C115.248 54.1235 114.788 55.2618 113.866 56.1511C112.945 57.0404 111.757 57.4851 110.304 57.4851C108.851 57.4851 107.646 57.0404 106.689 56.1511C105.768 55.2262 105.307 54.0879 105.307 52.7361C105.307 51.3844 105.768 50.2639 106.689 49.3745C107.646 48.4497 108.851 47.9872 110.304 47.9872ZM115.355 85.3916H122.585V91.1544H98.9804V85.3916H106.955V68.5837H99.2462V62.8209H115.355V85.3916Z" fill="black"/>
<path d="M130.007 62.8209H137.343L137.928 66.0758C139.204 64.6529 140.533 63.6035 141.915 62.9276C143.333 62.2162 144.928 61.8605 146.7 61.8605C149.146 61.8605 151.042 62.6075 152.388 64.1015C153.771 65.5956 154.462 67.6766 154.462 70.3445V91.1544H146.062V72.799C146.062 71.0204 145.867 69.7931 145.477 69.1172C145.087 68.4414 144.379 68.1034 143.351 68.1034C142.5 68.1034 141.667 68.388 140.852 68.9572C140.072 69.4908 139.257 70.2911 138.407 71.3583V91.1544H130.007V62.8209Z" fill="black"/>
<path d="M169.167 79.4688C169.699 83.7731 171.967 85.9252 175.972 85.9252C178.382 85.9252 180.792 85.1426 183.202 83.5774L186.552 88.1663C185.169 89.3758 183.521 90.3362 181.607 91.0477C179.693 91.7235 177.585 92.0615 175.281 92.0615C172.127 92.0615 169.451 91.4389 167.253 90.1939C165.056 88.9133 163.39 87.1525 162.256 84.9114C161.157 82.6348 160.608 80.0024 160.608 77.0143C160.608 74.1685 161.14 71.6073 162.203 69.3307C163.302 67.0185 164.879 65.2043 166.934 63.8881C169.025 62.5363 171.506 61.8605 174.377 61.8605C177.071 61.8605 179.41 62.4474 181.395 63.6213C183.379 64.7596 184.903 66.4315 185.967 68.637C187.065 70.8069 187.615 73.4037 187.615 76.4274C187.615 77.6013 187.562 78.6151 187.455 79.4688H169.167ZM174.377 67.5165C172.853 67.5165 171.63 68.0856 170.709 69.224C169.787 70.3267 169.238 72.0342 169.061 74.3464H179.428C179.357 69.7931 177.673 67.5165 174.377 67.5165Z" fill="black"/>
<path d="M218.056 77.8681C218.056 82.2079 216.745 85.6406 214.122 88.1663C211.535 90.6919 207.902 91.9548 203.224 91.9548C200.956 91.9548 198.953 91.6702 197.217 91.101C195.515 90.5319 193.814 89.6603 192.113 88.4864L195.409 83.0972C196.685 83.951 197.872 84.5557 198.971 84.9114C200.07 85.2671 201.328 85.445 202.745 85.445C204.695 85.445 206.272 84.8225 207.477 83.5774C208.717 82.2968 209.338 80.4115 209.338 77.9214V60.5799H198.067V54.1768H218.056V77.8681Z" fill="black"/>
<path d="M234.038 82.1901C234.038 83.5063 234.268 84.449 234.729 85.0181C235.225 85.5517 235.952 85.8185 236.909 85.8185C237.759 85.8185 238.627 85.5517 239.514 85.0181C240.4 84.449 241.126 83.6842 241.693 82.7237V62.8209H250.093V91.1544H242.756L242.384 87.8461C241.463 89.1979 240.222 90.2473 238.663 90.9943C237.103 91.7057 235.455 92.0615 233.719 92.0615C231.061 92.0615 229.04 91.2967 227.658 89.767C226.311 88.2019 225.638 86.0319 225.638 83.2573V62.8209H234.038V82.1901Z" fill="black"/>
<path d="M281.97 51.5622V91.1544H274.527L274.102 88.0596C273.251 89.269 272.17 90.2473 270.859 90.9943C269.548 91.7057 268.024 92.0615 266.287 92.0615C262.884 92.0615 260.297 90.7097 258.525 88.0062C256.788 85.3027 255.92 81.6032 255.92 76.9076C255.92 73.9907 256.381 71.3939 257.302 69.1172C258.224 66.8406 259.535 65.062 261.236 63.7814C262.938 62.5008 264.922 61.8605 267.191 61.8605C269.743 61.8605 271.869 62.7498 273.57 64.5284V50.6552L281.97 51.5622ZM269.424 68.0501C267.9 68.0501 266.712 68.7793 265.862 70.2378C265.011 71.6607 264.586 73.9017 264.586 76.961C264.586 80.2336 264.958 82.5458 265.702 83.8976C266.482 85.2138 267.563 85.8719 268.945 85.8719C270.717 85.8719 272.259 84.7869 273.57 82.617V70.3979C272.968 69.6153 272.33 69.0283 271.656 68.637C271.018 68.2457 270.274 68.0501 269.424 68.0501Z" fill="black"/>
<path d="M316.399 64.475C314.556 65.2221 311.845 65.5956 308.265 65.5956C310.108 66.4137 311.472 67.392 312.358 68.5303C313.28 69.6686 313.741 71.1271 313.741 72.9057C313.741 74.7199 313.245 76.3562 312.252 77.8147C311.26 79.2376 309.86 80.3581 308.052 81.1763C306.245 81.9945 304.154 82.4035 301.779 82.4035C300.609 82.4035 299.511 82.2968 298.483 82.0834C298.199 82.2257 297.969 82.4569 297.792 82.7771C297.65 83.0616 297.579 83.364 297.579 83.6842C297.579 84.2177 297.774 84.6446 298.164 84.9648C298.589 85.2493 299.422 85.3916 300.663 85.3916H305.341C307.467 85.3916 309.346 85.7474 310.976 86.4588C312.607 87.1703 313.865 88.1485 314.751 89.3935C315.637 90.6386 316.08 92.0437 316.08 93.6089C316.08 96.5614 314.786 98.8558 312.199 100.492C309.647 102.164 305.908 103 300.982 103C297.473 103 294.708 102.626 292.688 101.879C290.703 101.168 289.303 100.154 288.488 98.838C287.709 97.5218 287.319 95.8677 287.319 93.8757H294.762C294.762 94.765 294.921 95.4586 295.24 95.9566C295.594 96.4547 296.232 96.8282 297.154 97.0772C298.075 97.3262 299.422 97.4507 301.194 97.4507C303.675 97.4507 305.376 97.1661 306.298 96.597C307.255 96.0278 307.733 95.2274 307.733 94.1958C307.733 93.3421 307.379 92.6484 306.67 92.1148C305.997 91.6168 304.987 91.3678 303.64 91.3678H299.174C296.268 91.3678 294.088 90.852 292.635 89.8204C291.182 88.7532 290.455 87.4015 290.455 85.7651C290.455 84.698 290.721 83.702 291.253 82.7771C291.82 81.8166 292.6 81.0162 293.592 80.3759C291.82 79.4155 290.544 78.2949 289.764 77.0143C288.984 75.6981 288.595 74.1152 288.595 72.2654C288.595 70.1666 289.126 68.3347 290.19 66.7695C291.253 65.2043 292.741 64.0126 294.655 63.1944C296.569 62.3407 298.749 61.9138 301.194 61.9138C304.03 61.985 306.44 61.7182 308.424 61.1134C310.409 60.4731 312.429 59.5305 314.485 58.2854L316.399 64.475ZM301.407 67.4098C300.06 67.4098 298.997 67.8366 298.217 68.6904C297.473 69.5441 297.101 70.7002 297.101 72.1587C297.101 73.6883 297.491 74.88 298.27 75.7337C299.05 76.5875 300.096 77.0143 301.407 77.0143C302.789 77.0143 303.852 76.6052 304.597 75.7871C305.341 74.9333 305.713 73.6883 305.713 72.052C305.713 68.9572 304.278 67.4098 301.407 67.4098Z" fill="black"/>
<path d="M328.552 79.4688C329.084 83.7731 331.352 85.9252 335.357 85.9252C337.767 85.9252 340.177 85.1426 342.587 83.5774L345.937 88.1663C344.555 89.3758 342.906 90.3362 340.993 91.0477C339.079 91.7235 336.97 92.0615 334.666 92.0615C331.512 92.0615 328.836 91.4389 326.639 90.1939C324.441 88.9133 322.775 87.1525 321.641 84.9114C320.543 82.6348 319.993 80.0024 319.993 77.0143C319.993 74.1685 320.525 71.6073 321.588 69.3307C322.687 67.0185 324.264 65.2043 326.32 63.8881C328.411 62.5363 330.892 61.8605 333.762 61.8605C336.456 61.8605 338.795 62.4474 340.78 63.6213C342.765 64.7596 344.289 66.4315 345.352 68.637C346.451 70.8069 347 73.4037 347 76.4274C347 77.6013 346.947 78.6151 346.841 79.4688H328.552ZM333.762 67.5165C332.238 67.5165 331.016 68.0856 330.094 69.224C329.173 70.3267 328.623 72.0342 328.446 74.3464H338.813C338.742 69.7931 337.059 67.5165 333.762 67.5165Z" fill="black"/>
</svg>
